<svg xmlns="http://www.w3.org/2000/svg" viewBox="0 0 131.91 48.08"><defs/><defs><clipPath id="a" clipPathUnits="userSpaceOnUse"><path d="M0 36.06h98.93V0H0z"/></clipPath></defs><g clip-path="url(#a)" transform="matrix(1.33333 0 0 -1.33333 0 48.08)"><path d="M10.76 31.69s-1.5-.09-2.09 0c-.58.08-3.16.5-5.5-.67C.84 29.85-.08 27.2.01 25.27c.08-1.92 1.25-4.58 4.25-5.17 3-.58 4.33 1 5 1.59a4.97 4.97 0 011.08 1.58l-1 .58S6.84 20.2 4.5 22.1c-2.34 1.92-1.17 5.92-.25 6.84.91.91 3.25 1.75 4.16 1.08.92-.67 1-2.58 1-2.58l1.34.08zM96.3 12.05s-1.5-.08-2.08 0c-.58.08-3.16.5-5.5-.67-2.33-1.16-3.25-3.83-3.16-5.75.08-1.91 1.25-4.58 4.25-5.16 3-.59 4.33 1 5 1.58a4.97 4.97 0 011.08 1.58l-1 .59s-2.5-3.67-4.83-1.75c-2.34 1.91-1.17 5.91-.25 6.83.91.92 3.25 1.75 4.16 1.08.92-.66 1-2.58 1-2.58l1.34.08zM12.26 28.77l2.08 3.06h8.75l1.08-3.64-1.8-.44s-.03 1.74-.87 2.26c-.83.51-1.5 0-1.5 0l-1.2-6.23s-.34-1.16-.06-1.81c.29-.66 1.47-.85 1.47-.85l-.03-1.34h-7.1v1.31s2.32-.22 2.79 2c.47 2.22 1.4 7.1 1.4 7.1s-1.34.37-2.06-.53c-.72-.91-1.47-1.97-1.47-1.97zM31.06 27.56a1.79 1.79 0 00-1.5-.68h-1.13l.6 2.68s1.36.39 2.06-.2c.6-.52.22-1.52-.03-1.8m3.16 2.96c-.76 1.3-2.44 1.3-2.44 1.3H25.2V30.7s.44.11.9-.42c.48-.53.1-1.47.1-1.56 0-.1-.93-3.69-1.3-5.6-.38-1.9-2.1-2-2.1-2v-1.34h5.68v1.5s-.4-.12-.68 0c-.28.13-.5.28-.47 1.1.03.8.69 2.53.69 2.53s3.5-.26 5.15 1c1.66 1.24 1.57 3.7 1.04 4.61M42.34 22.5c-1.04-1-1.75-1.03-2.5-1.03-.97 0-1.6.7-1.83 1.52-.38 1.42-.36 6.01 2.67 7.15.53.2 2 .3 2.73-.64.75-.96.7-5.28-1.07-7m3.56 7.75c-1.22 1.69-3.6 2.34-5.78 1.58a9.03 9.03 0 01-2.57-1.49A6.78 6.78 0 0135 25.05a6.3 6.3 0 01.78-3.4 3.83 3.83 0 012.6-1.76 9.64 9.64 0 013.64.26c1.23.32 2.4 1.38 3.23 2.41a9.18 9.18 0 011.57 3.69c.09.74.3 2.31-.9 4M44.95 2.79c-1.03-1-1.75-1.03-2.5-1.03-.96 0-1.6.7-1.82 1.52-.38 1.41-.36 6 2.66 7.15.54.2 2 .3 2.74-.65.74-.95.7-5.27-1.08-7m3.57 7.76c-1.22 1.69-3.6 2.34-5.78 1.58a9.03 9.03 0 01-2.57-1.5 6.78 6.78 0 01-2.56-5.28 6.3 6.3 0 01.78-3.4A3.83 3.83 0 0141 .18a9.64 9.64 0 013.63.26c1.24.32 2.4 1.38 3.24 2.41a9.18 9.18 0 011.56 3.69c.1.74.32 2.31-.9 4M48.88 31.83h5.63v-.56s-1.55-.54-1.92-1.5c-.38-.96-.9-4.46-.9-4.46l4.82 3.26s.62.58.79 1.2c.16.63-.93 1.39-.93 1.39l-.03.67h5.79v-.8s-1.63-.26-1.96-1c-.33-.76-1.58-6.84-1.58-6.84s-.34-1.46-.09-1.71 1.25-.2 1.25-.2l-.04-1.47h-5.79l.04 1.17s1.34.04 1.84 1.04 1.29 4.67 1.29 4.67l-5.46-3.88s-.58-.41-.42-.87c.17-.46 1.17-.63 1.17-.63l-.04-1.5h-5.46v1.25s1.37-.04 1.83 1.54c.46 1.59 1.5 7 1.5 7s.13.85-.42 1.17c-.33.19-.91.13-.91.13zM53.6 36.04c.66 0 1.24-.14 1.16-1.04-.04-.44-.67-.85-.67-.85s1.27-.17 2.31-.17 2.1.3 2.1.3-.56.45-.43 1.03c.12.59.7.75 1.33.75.63 0 1.15-.41 1.15-1.14s-.56-1.96-4.5-1.88c-.88.02-3.48.1-3.84 1.42-.35 1.31.72 1.58 1.38 1.58M75.03 30.69s.9.06 1.03-.22c.25-.6-.22-2.56-.78-5.06-.57-2.5-.82-3.75-1.2-3.91a6.49 6.49 0 00-1.37-.22v-1.47h10.63l1 3.88-.94.53s-.53-1.35-1.19-1.94c-.47-.42-.68-.72-1.28-.78-.6-.06-3.62.1-3.62.1l.65 3.65H80l-.2-1.57 1.16-.02.91 4.8h-.94s-.15-.52-.4-.96c-.25-.44-.29-.6-.75-.63-.47-.03-1.44.1-1.44.1l.81 3.22s3 .4 3.9-.38c.91-.78.95-1.37.95-1.37h.96l-.68 3.39h-9.25zM74.53 11.13s.9.07 1.03-.22c.25-.59-.22-2.56-.78-5.06-.57-2.5-.82-3.75-1.2-3.9a6.49 6.49 0 00-1.37-.22V.26h10.63l1 3.87-.94.54s-.53-1.35-1.19-1.94c-.47-.43-.68-.72-1.28-.78-.6-.07-3.62.09-3.62.09l.65 3.66h2.04l-.2-1.58 1.16-.02.91 4.82h-.94s-.15-.54-.4-.97c-.25-.44-.29-.6-.75-.63-.47-.03-1.44.1-1.44.1l.81 3.21s3 .41 3.9-.37c.91-.78.95-1.38.95-1.38h.96l-.68 3.4h-9.25z"/><path d="M61.58 28.77l2.08 3.06h8.75l1.08-3.64-1.8-.44s-.03 1.74-.86 2.26c-.84.51-1.5 0-1.5 0l-1.2-6.23s-.35-1.16-.07-1.81c.29-.66 1.47-.85 1.47-.85l-.03-1.34h-7.1v1.31s2.32-.22 2.79 2c.47 2.22 1.4 7.1 1.4 7.1s-1.34.37-2.06-.53c-.72-.91-1.47-1.97-1.47-1.97zM84.96 19.81l5.6-.03v1.66s-.96-.1-1.17.03c-.17.12-.27.31-.11.97l.68 2.78s1.53.37 2.03-.5l1.47-2.56s.57-.82-.3-.82h-1.23l.03-1.56 5.57.03v1.6s-.7-.16-1.2.25c-.5.4-2.65 4.5-2.65 4.5s-.15.4-.03.72c.13.3 1.42 1.5 2.07 2.18.65.68 1.3 1.17 2.27 1.2.97.03.94 0 .94 0v1.57h-4.97l-.03-.99s.75-.15.35-.56c-.41-.4-2.57-2.65-2.97-2.94-.4-.28-.85-.34-.94-.03-.1.32.4 1.69.55 2.4.14.7.57 1.07.82 1.07s.6.03.6.03v1.02H86.9v-1.45s.97-.07 1.1-.32c.12-.25.08-.93-.07-1.68l-1.19-6.2s-.21-.71-.8-.71h-.98zM61.58 9.23l2.08 3.06h8.75l1.08-3.64-1.8-.44s-.03 1.75-.86 2.26c-.84.51-1.5 0-1.5 0l-1.2-6.23s-.35-1.15-.07-1.8c.29-.67 1.47-.85 1.47-.85L69.5.24h-7.1v1.32s2.32-.22 2.79 2c.47 2.21 1.4 7.09 1.4 7.09s-1.34.37-2.06-.53-1.47-1.97-1.47-1.97zM13.24 9.23l2.08 3.06h8.75l1.08-3.64-1.8-.44s-.03 1.75-.86 2.26c-.84.51-1.5 0-1.5 0l-1.2-6.23s-.35-1.15-.06-1.8c.28-.67 1.46-.85 1.46-.85L21.16.24h-7.1v1.32s2.32-.22 2.79 2c.47 2.21 1.4 7.09 1.4 7.09s-1.34.37-2.06-.53c-.71-.9-1.46-1.97-1.46-1.97zM32.8 8.44A1.49 1.49 0 0031.5 7.2a50.5 50.5 0 00-1.64-.12s.64 2.8.73 2.94c.1.14.75.43 1.41.15.66-.28.9-1.04.78-1.73m1.55-5.31c-.28.56-.96 1.75-1.05 1.92-.1.17.05.64.05.64s.4.1 1.67.98c1.28.88 1.64 2.64.89 4.14-.75 1.5-2.81 1.47-2.81 1.47h-6.97v-1.4s.97.07 1.2-.25c.36-.5-.28-2.88-.51-4.04-.24-1.15-.52-2.56-.99-3.92-.47-1.36-2.12-1.12-2.12-1.12V0h6.26v1.66s-.62-.05-.98.01c-.36.07-.22 1.15-.1 1.64.1.48.35 1.86.88 1.86s1.12-.39 1.44-1.28c.2-.57.51-2.3.8-2.95.27-.66.92-.94.92-.94h3.35v1.31s-.75.03-1.06.19c-.31.16-.6 1.06-.87 1.63M11.62 7.84v4.2h-1.28v-.98s-.5-.18-.88.22c-.37.4-1.3.93-2.72 1-1.4.06-4.71-1.06-4.75-3.81-.03-2.75 2.29-3.25 3.13-3.4.84-.16 3.12-.3 3.22-1.46.08-1.04-.28-1.77-1.88-1.83a3.63 3.63 0 00-3.28 1.56c-.62.91-.87 1.47-.87 1.47l-1.13.03L.62.24h1.87l.13 1.23S3.96 0 7.46 0s3.68 3.53 3.66 4c-.03.72-.1 1.86-2.64 2.77-2.53.9-3.44 1.07-3.61 1.92-.1.53.3 1.86 2.21 1.79A3.47 3.47 0 009.5 9.44c.6-.6.88-1.6.88-1.6zM49.76 12.2h5.5v-.93s-1.25-.46-1.38-1c-.13-.54 1.17-3 1.17-3l1.83 2.04s.88.8.8 1.21c-.1.42-1 .7-1 .7v.97h4.9v-1.13s-1.28-.2-1.95-1c-.67-.79-4.38-6.12-4.38-6.12s-.12-1.75.05-1.96c.16-.2 1.37-.25 1.37-.25V.26h-6.16v1.01s1.91.5 2.08 2.27c.16 1.77-.42 3.81-.75 4.52-.34.71-.59 2-1.04 2.38-.46.37-1.04.46-1.04.46zM11.09 17.77l-4.97-1.92 4.97-1.66zM86.98 17.77l4.97-1.92-4.97-1.66z"/><path fill="none" stroke-miterlimit="10" stroke-width=".75" d="M11.09 15.98h76.25"/></g></svg>