<svg xmlns="http://www.w3.org/2000/svg" viewBox="0 0 6.5 8.2"><defs/><defs><clipPath id="a" clipPathUnits="userSpaceOnUse"><path d="M0 23.3h18.4V0H0z"/></clipPath></defs><g clip-path="url(#a)" transform="matrix(.35278 0 0 -.35278 0 8.2)"><path d="M2 12.6h6v6.3H2zm7-2H1a1 1 0 00-1 1v8.3c0 .6.4 1 1 1h8c.6 0 1-.4 1-1v-8.3c0-.6-.4-1-1-1"/><path d="M17.4 7.3H6.8a1 1 0 100 2h9L14.2 12a1 1 0 000 1l1.4 2.7H9a1 1 0 100 2h8.4a1 1 0 00.9-1.5l-2-3.7 2-3.7a1 1 0 00-.9-1.5M2.6 0a1 1 0 00-1 1v10.3a1 1 0 102 0V1c0-.6-.5-1-1-1M2.6 19.7a1 1 0 00-1 1v1.6a1 1 0 102 0v-1.6c0-.6-.5-1-1-1"/><path d="M6.8 7.3a1 1 0 00-1 1v3a1 1 0 102 0v-3c0-.5-.5-1-1-1"/></g></svg>