<svg xmlns="http://www.w3.org/2000/svg" viewBox="0 0 8.2 7.3"><defs/><defs><clipPath id="a" clipPathUnits="userSpaceOnUse"><path d="M0 20.7h23.2V0H0z"/></clipPath></defs><g clip-path="url(#a)" transform="matrix(.35278 0 0 -.35278 0 7.3)"><path d="M7.8 18.7c-1.3 0-2.3-1.3-2.3-2.9 0-1.6 1-2.8 2.3-2.8 1.3 0 2.4 1.2 2.4 2.8 0 1.6-1.1 2.9-2.4 2.9m0-7.7c-2.4 0-4.3 2.1-4.3 4.8 0 2.7 2 4.9 4.3 4.9 2.4 0 4.4-2.2 4.4-4.9s-2-4.8-4.4-4.8M2.2 2h11l.2 3.2c0 .7-.5 1.7-1.3 2-2.8 1-6 1-8.7 0-.8-.3-1.4-1.3-1.4-2zm12-2h-13a1 1 0 00-1 1L0 5C0 6.8 1.1 8.6 2.7 9a15 15 0 0010 0 4.2 4.2 0 002.7-4l-.2-4c0-.6-.5-1-1-1"/><path d="M2.2 2h11l.2 3.2c0 .7-.5 1.7-1.3 2-2.8 1-6 1-8.7 0-.8-.3-1.4-1.3-1.4-2zm12-2h-13a1 1 0 00-1 1L0 5C0 6.8 1.1 8.6 2.7 9a15 15 0 0010 0 4.2 4.2 0 002.7-4l-.2-4c0-.6-.5-1-1-1M22 0h-5.2a1 1 0 100 2H21l.2 2.7c0 .5-.5 1.3-1 1.5a11 11 0 01-3.6.6 1 1 0 00-1 1c0 .6.5 1 1 1a13 13 0 004.2-.7 3.8 3.8 0 002.4-3.6L23 1c0-.5-.5-.9-1-.9M18 16c-.9 0-1.6-1-1.6-2 0-1.2.7-2 1.6-2 .9 0 1.6.8 1.6 2 0 1-.7 2-1.6 2m0-6c-2 0-3.6 1.7-3.6 4 0 2.1 1.6 4 3.6 4s3.6-1.9 3.6-4c0-2.3-1.6-4-3.6-4"/></g></svg>