<svg xmlns="http://www.w3.org/2000/svg" viewBox="0 0 8.4 8.4"><defs/><defs><clipPath id="a" clipPathUnits="userSpaceOnUse"><path d="M0 23.8h23.8V0H0z"/></clipPath></defs><g clip-path="url(#a)" transform="matrix(.35278 0 0 -.35278 0 8.4)"><path d="M6.2 9.1L6 6.2l3 .2 12 12.1-2.7 2.8zm-1.3-5a1 1 0 00-1 1.1l.3 4.4c0 .3.1.5.3.7l13.1 13a1 1 0 001.4 0l4.2-4a1 1 0 000-1.5L10 4.8a1 1 0 00-.7-.4L5 4.2"/><path d="M20.1 16.1c-.1 0-.2 0-.3.2L16 20v.7c.2.2.6.2.8 0l3.7-3.7a.5.5 0 00-.4-.9"/><path d="M5.6 8.2h-.5l-.1-3 2.9.1v.3c.2 1.5-.8 2.6-2.3 2.6"/><path d="M22.8 0H1a1 1 0 00-1 1v21.8c0 .6.4 1 1 1h10.8a1 1 0 000-2H2V2h19.8v9.8a1 1 0 102 0V1c0-.6-.4-1-1-1"/></g></svg>