<svg viewBox="0 0 480 480"><defs/><path d="M392 0H88a40.05 40.05 0 00-40 40v400a40.05 40.05 0 0040 40h304a40.05 40.05 0 0040-40V40a40.05 40.05 0 00-40-40zM160 16h160v16H160V16zm224 32v80H96V48h288zm32 392a24 24 0 01-24 24H88a24 24 0 01-24-24V40a24 24 0 0124-24h56v16H88a8 8 0 00-8 8v96a8 8 0 008 8h304a8 8 0 008-8V40a8 8 0 00-8-8h-56V16h56a24 24 0 0124 24v400z"/><path d="M240 160a40 40 0 100 80 40 40 0 000-80zm0 64a24 24 0 110-48 24 24 0 010 48zM344 160a40 40 0 100 80 40 40 0 000-80zm0 64a24 24 0 110-48 24 24 0 010 48zM136 160a40 40 0 100 80 40 40 0 000-80zm0 64a24 24 0 110-48 24 24 0 010 48zM240 256a40 40 0 100 80 40 40 0 000-80zm0 64a24 24 0 110-48 24 24 0 010 48zM344 256a40 40 0 100 80 40 40 0 000-80zm0 64a24 24 0 110-48 24 24 0 010 48zM136 256a40 40 0 100 80 40 40 0 000-80zm0 64a24 24 0 110-48 24 24 0 010 48zM240 352a40 40 0 100 80 40 40 0 000-80zm0 64a24 24 0 110-48 24 24 0 010 48zM136 352a40 40 0 100 80 40 40 0 000-80zm0 64a24 24 0 110-48 24 24 0 010 48zM376 352h-64a8 8 0 00-8 8v80a8 8 0 008 8h64a8 8 0 008-8v-80a8 8 0 00-8-8zm-8 80h-48v-64h48v64z"/><rect width="16" height="16" x="320" y="96"/><rect width="16" height="16" x="352" y="96"/><polygon points="144 80 144 64 128 64 128 80 112 80 112 96 128 96 128 112 144 112 144 96 160 96 160 80"/><path d="M352 408h-8a8 8 0 000 16h8a8 8 0 000-16z"/></svg>