<svg xmlns="http://www.w3.org/2000/svg" viewBox="0 0 512 512" fill="#ffffff"><defs/><path d="M505.4 406.4L295.4 58.1a46.24 46.24 0 00-39.4-22.24 46.24 46.24 0 00-39.38 22.24L6.59 406.4a46.07 46.07 0 00-.66 46.36 46.07 46.07 0 0040.05 23.38h420.03c16.56 0 31.91-8.96 40.06-23.38a46.06 46.06 0 00-.67-46.37zm-28.36 29.97a12.68 12.68 0 01-11.03 6.44H46a12.68 12.68 0 01-10.85-19.2L245.16 75.3A12.73 12.73 0 01256 69.2c4.41 0 8.56 2.35 10.84 6.13L476.86 423.6c2.35 3.9 2.42 8.8.18 12.76z"/><path d="M256.15 173c-12.68 0-22.57 6.8-22.57 18.87 0 36.8 4.33 89.69 4.33 126.49 0 9.59 8.35 13.6 18.25 13.6 7.42 0 17.93-4.01 17.93-13.6 0-36.8 4.33-89.69 4.33-126.49 0-12.06-10.2-18.87-22.27-18.87zM256.46 353.3a23.63 23.63 0 00-23.8 23.82 23.82 23.82 0 0023.8 23.81c12.68 0 23.51-11.13 23.51-23.81 0-12.99-10.83-23.81-23.5-23.81z"/></svg>