<svg xmlns="http://www.w3.org/2000/svg" viewBox="0 0 8.5 8"><defs/><defs><clipPath id="a" clipPathUnits="userSpaceOnUse"><path d="M0 22.7h24.2V0H0z"/></clipPath></defs><g clip-path="url(#a)" transform="matrix(.35278 0 0 -.35278 0 8)"><path d="M23.6 18.7H4a.5.5 0 000 1h19.6a.5.5 0 000-1M2.4 15.5a.4.4 0 01-.4-.4V2.4c0-.2.2-.4.4-.4h19.4c.2 0 .4.2.4.4v12.7c0 .2-.2.4-.4.4zM21.8 0H2.4A2.4 2.4 0 000 2.4v12.7c0 1.3 1.1 2.4 2.4 2.4h19.4c1.3 0 2.4-1 2.4-2.4V2.4c0-1.3-1-2.4-2.4-2.4"/><path d="M23.2 13.8a1 1 0 00-1 1v5.5c0 .2-.2.4-.4.4H2.4a.4.4 0 01-.4-.4v-5.5a1 1 0 10-2 0v5.5c0 1.3 1.1 2.4 2.4 2.4h19.4c1.3 0 2.4-1 2.4-2.4v-5.5c0-.6-.4-1-1-1M22.9 5.3h-5c-1.3 0-2.4 1.1-2.4 2.4v2.1c0 1.3 1.1 2.4 2.4 2.4h5a1 1 0 100-2h-5a.4.4 0 01-.4-.4v-2c0-.3.2-.5.4-.5h5a1 1 0 100-2"/></g></svg>