<svg xmlns="http://www.w3.org/2000/svg" viewBox="0 0 8.9 8.4"><defs/><defs><clipPath id="a" clipPathUnits="userSpaceOnUse"><path d="M0 23.8h25.3V0H0z"/></clipPath></defs><g clip-path="url(#a)" transform="matrix(.35278 0 0 -.35278 0 8.4)"><path d="M9.3 9L5 4.8C4.3 4 4.2 3 4.6 2.6l.6-.2c.5 0 1 .3 1.5.7l4.2 4.2zM5.2.4c-.8 0-1.5.3-2 .8-1.3 1.3-1 3.4.5 5L8.6 11c.4.4 1 .4 1.4 0l3-3a1 1 0 000-1.5L8.1 1.7a4.2 4.2 0 00-3-1.3M22.3 21l-1-1a.4.4 0 010-.6c.2-.3.4-.3.6 0l1 1zm-.7-3.8c-.6 0-1.2.3-1.7.7-1 1-1 2.5 0 3.5l1.7 1.6c.3.4 1 .4 1.4 0l2-2a1 1 0 000-1.4L23.3 18c-.4-.4-1-.7-1.7-.7"/><path d="M15.1 12.2a1 1 0 00-.7 1.7l5.5 5.5a1 1 0 001.4-1.5l-5.5-5.5a1 1 0 00-.7-.2"/><path d="M8 12.8c.2 0 .5-.1.7-.3l9.9-10c.7-.7 2-.7 2.6 0a1.8 1.8 0 010 2.7l-10 10a1 1 0 00-.2.9 4.5 4.5 0 01-4.3 5.7L8.4 20c.3-.2.4-.6.3-1L8 16.6a1 1 0 00-.7-.7L4.7 15a1 1 0 00-1 .2L2 17.1a4.6 4.6 0 015.7-4.3H8M20 0c-1.1 0-2 .4-2.8 1.1l-9.6 9.6a6.6 6.6 0 00-7.2 8.8c.1.3.4.6.7.6.4.1.7 0 1-.2l2.7-2.7 1.4.3.4 1.5-2.7 2.7a1 1 0 00.4 1.6 6.6 6.6 0 008.8-7.2l9.5-9.5a3.8 3.8 0 000-5.5A3.8 3.8 0 0020 0"/><path d="M19.8 4.9a.8.8 0 110-1.7.8.8 0 010 1.7"/></g></svg>