<svg xmlns="http://www.w3.org/2000/svg" viewBox="0 0 7.7 9.6"><defs/><defs><clipPath id="a" clipPathUnits="userSpaceOnUse"><path d="M0 23h22.4V0H0z"/></clipPath><clipPath id="b" clipPathUnits="userSpaceOnUse"><path d="M0 25h20V0H0z"/></clipPath><clipPath id="c" clipPathUnits="userSpaceOnUse"><path d="M0 27.1h21.9V0H0z"/></clipPath></defs><g clip-path="url(#a)" transform="matrix(.35278 0 0 -.35278 176 -55.4)"><path d="M2 0H0c0 3.7 3.2 6.8 7.2 6.8v-2C4.3 4.8 2 2.6 2 0M22.4 0h-2c0 2.6-2.3 4.8-5.1 4.8v2c4 0 7.1-3 7.1-6.8M10.9 22c-1.4 0-2.8-.6-3.7-1.8A7.4 7.4 0 015.9 14c.8-4.4 2.8-7 5.3-7s4.5 2.6 5.4 7c.4 2.5 0 4.7-1.3 6.2-1 1.3-2.6 2-4 1.9h-.4M11.2 6c-3 0-5.4 3-6.3 7.9-.5 2.7 0 5.2 1.5 7 1.2 1.5 3 2.3 4.9 2.1h.2c1.7 0 3.4-.7 4.5-2.1 1.5-1.8 2-4.3 1.6-7-1-5-3.3-8-6.4-8"/><path  d="M4.8 14.4h-.2c-.5-.1-.5-1.4-.1-2.7.3-1.3.8-2 1.1-2h.1c.3.2.5 1 .3 2.5-.3 1.2-.8 2.2-1.3 2.2M17.7 14.4c-.5 0-1-1-1.2-2.3-.2-1.3-.1-2.2.2-2.3h.1c.4 0 .8.6 1.2 1.9.4 1.3.3 2.6-.2 2.7h-.1M12.4 22.6h-1.2a15.3 15.3 0 01-2.2 0 3 3 0 01-2.2-1.3c-.4-.3-.6-.6-.7-1l-.1-.5-.3-1.3a9.7 9.7 0 01-.4-2.7h.1c.2 0 .5 0 .6 1v1.8c.6.4 1.5 1 2.5 1L10 19l1.2-.2 1.2.2c.4.3 1 .4 1.5.7 1 0 1.8-.7 2.3-1.1l.1-1.8c.1-1 .5-1 .6-1h.1c.1.3 0 1.5-.3 2.7l-.3 1.3-.1.5c-.1.4-.4.7-.8 1a3 3 0 01-2.1 1.3h-1"/><path  d="M6.3 14.5V14c0-.3 0-.6.3-.8.2-.3.6-.4 1-.4h.7c.4 0 .8.2 1 .4.3.3.4.5.3.8v.3c-1 .3-2.2.4-3.3 0M7.6 12c-.7 0-1.3.3-1.8.7a2 2 0 00-.5 1.5v.8l.1.3.3.1c1.4.5 3 .5 4.6 0l.2-.1v-.3l.1-.4v-.4c0-.5-.1-1-.5-1.4-.4-.5-1-.8-1.7-.8zM12.8 14.5V14c0-.3 0-.6.3-.8.2-.3.6-.4 1-.4h.8c.4 0 .7.2 1 .4.2.3.3.5.3.8v.3c-1.1.3-2.3.3-3.4 0m1.3-2.5c-.7 0-1.3.3-1.7.7a2 2 0 00-.6 1.5v.8l.1.3.3.1c1.5.5 3 .5 4.6 0l.2-.1.1-.3V14c.1-.5 0-1-.5-1.4-.4-.5-1-.8-1.7-.8z"/><path d="M12.3 13.5h-2v1h2z"/></g><g clip-path="url(#b)" transform="matrix(.35278 0 0 -.35278 -785 -452.7)"><path d="M13.7.5c-.3 0-.5.2-.5.5v5.2c0 .3.2.5.5.5H19a.5.5 0 100-1h-4.7V1c0-.3-.2-.5-.5-.5"/><path  d="M5.7 2h7.6l4.6 4.6V18H5.7zm8-2h-9a1 1 0 00-1 1v17.9c0 .5.5 1 1 1H19c.6 0 1-.5 1-1V6.2a1 1 0 00-.3-.7L14.4.3a1 1 0 00-.7-.3"/><path  d="M12.8 15H7.7a.5.5 0 100 1h5a.5.5 0 000-1M16.1 12.4H7.7a.5.5 0 100 1H16a.5.5 0 100-1M16.1 9.8H7.7a.5.5 0 100 1H16a.5.5 0 100-1M11.2 7.2H7.7a.5.5 0 100 1h3.5a.5.5 0 100-1"/><path d="M4.5 3.6H1a1 1 0 00-1 1v18.5c0 .6.4 1 1 1h14.4c.5 0 1-.4 1-1v-3.9a1 1 0 10-2 0v3H2V5.5h2.5a1 1 0 100-2"/><path  d="M11.1 21H5.2a2 2 0 000 4h6a2 2 0 000-4"/></g><g clip-path="url(#c)" transform="matrix(.35278 0 0 -.35278 0 9.6)"><path d="M10.1 19.2H5a.5.5 0 100 1H10a.5.5 0 000-1M13.5 16.6H5a.5.5 0 100 1h8.5a.5.5 0 100-1M13.5 14H5a.5.5 0 100 1h8.5a.5.5 0 100-1M8.5 11.3H5a.5.5 0 100 1h3.5a.5.5 0 100-1M5.9 25.1l-.2-.1.2-.1h6.9c0 .2-.1.2-.2.2zm6.7-2.2H6a2.1 2.1 0 000 4.2h6.7a2.1 2.1 0 000-4.2M15.7 11.4a5.2 5.2 0 110-10.4 5.2 5.2 0 010 10.4m0-11.4a6.2 6.2 0 100 12.4 6.2 6.2 0 000-12.4"/><path  d="M10.5 2.9H1a1 1 0 00-1 1V25c0 .6.4 1 1 1h16.5c.6 0 1-.4 1-1V11.6h-2v12.5H2V5h8.5z"/><path  d="M14.7 2.6a1 1 0 00-.8.3l-1.6 1.7A1 1 0 1013.7 6l1-.9 2.8 3.6c.4.4 1 .5 1.4.1.4-.3.5-1 .2-1.4L15.4 3a1 1 0 00-.7-.4"/></g></svg>