<svg xmlns="http://www.w3.org/2000/svg" viewBox="0 0 512 512"><defs/><path d="M512 120a104 104 0 00-183-67 232 232 0 10133 178c24-31 50-72 50-111zM328 248c-1-22-3-44-6-65 14 25 32 48 48 65zm-54 163c-12 33-28 53-42 53s-29-20-41-53l-10-31c33-5 69-5 102 0l-9 31zM33 280h103c1 26 3 51 7 74-27 7-51 16-72 28-22-29-35-64-38-102zm37-134c22 12 46 21 73 28-4 23-6 48-7 74H33c3-37 16-72 37-102zm79 240c6 23 15 49 27 70-32-9-61-27-84-49 17-9 36-16 57-21zm26-38c-4-21-6-44-7-68h128c-1 24-3 47-6 68-38-5-78-5-115 0zm-7-100c1-24 3-47 7-68 38 5 78 5 115 0 3 21 5 44 6 68zm23-131c12-33 28-53 41-53s30 20 42 53l9 31c-33 5-68 5-102 0l10-31zm217-69c40 0 72 32 72 72 0 42-45 96-72 122-27-26-72-80-72-122 0-40 32-72 72-72zm-103 61c-5-13-10-26-17-37l24 9c-4 8-6 18-7 28zM176 72c-12 21-21 47-27 71-21-6-40-13-57-22 24-23 53-40 84-49zm112 384c12-21 21-47 27-70 21 5 40 12 57 21-23 23-52 40-84 49zm106-74c-21-12-46-21-73-28 4-23 6-48 7-74h103c-3 37-16 72-37 102z"/><circle cx="408.1" cy="120" r="32"/></svg>