<svg xmlns="http://www.w3.org/2000/svg" viewBox="0 0 512 512"><defs/><path d="M344 152a88 88 0 10-176 0 88 88 0 00176 0zm-144 0a56 56 0 11112 0 56 56 0 01-112 0z"/><path d="M511 491l-64-200c-1-5-6-9-11-11l-65-16c21-35 37-74 37-112a152 152 0 00-304 0c0 38 16 77 37 112l-65 16c-5 2-10 6-11 11L1 491a16 16 0 0019 21l124-31 108 30h8l108-30 124 31a16 16 0 0019-21zM240 383v92l-78-22 22-130c23 29 46 51 56 60zm32 0c10-9 33-31 56-60l22 130-78 22zM256 32c66 0 120 54 120 120 0 79-89 172-120 202-31-30-120-123-120-202 0-66 54-120 120-120zM93 309l63-16-26 158-90 23zm289 142l-26-158 63 16 53 165z"/></svg>