<svg xmlns="http://www.w3.org/2000/svg" xmlns:xlink="http://www.w3.org/1999/xlink"><defs><clipPath id="a" clipPathUnits="userSpaceOnUse"><path d="M0 23.8h23.8V0H0z"/></clipPath><clipPath id="a" clipPathUnits="userSpaceOnUse"><path d="M0 23h22.4V0H0z"/></clipPath><clipPath id="a" clipPathUnits="userSpaceOnUse"><path d="M0 23h22.4V0H0z"/></clipPath><clipPath id="b" clipPathUnits="userSpaceOnUse"><path d="M0 25h20V0H0z"/></clipPath><clipPath id="a" clipPathUnits="userSpaceOnUse"><path d="M0 23h22.4V0H0z"/></clipPath><clipPath id="b" clipPathUnits="userSpaceOnUse"><path d="M0 25h20V0H0z"/></clipPath><clipPath id="c" clipPathUnits="userSpaceOnUse"><path d="M0 27.1h21.9V0H0z"/></clipPath><clipPath id="a" clipPathUnits="userSpaceOnUse"><path d="M0 20.7h23.2V0H0z"/></clipPath><clipPath id="a" clipPathUnits="userSpaceOnUse"><path d="M0 23.8h25.3V0H0z"/></clipPath><clipPath id="a" clipPathUnits="userSpaceOnUse"><path d="M0 23.3h18.4V0H0z"/></clipPath><clipPath id="a" clipPathUnits="userSpaceOnUse"><path d="M0 22.7h24.2V0H0z"/></clipPath><clipPath id="a" clipPathUnits="userSpaceOnUse"><path d="M0 36.06h98.93V0H0z"/></clipPath></defs><symbol id="icon-calc" viewBox="0 0 480 480"><path d="M392 0H88a40.05 40.05 0 00-40 40v400a40.05 40.05 0 0040 40h304a40.05 40.05 0 0040-40V40a40.05 40.05 0 00-40-40zM160 16h160v16H160V16zm224 32v80H96V48h288zm32 392a24 24 0 01-24 24H88a24 24 0 01-24-24V40a24 24 0 0124-24h56v16H88a8 8 0 00-8 8v96a8 8 0 008 8h304a8 8 0 008-8V40a8 8 0 00-8-8h-56V16h56a24 24 0 0124 24v400z"/><path d="M240 160a40 40 0 100 80 40 40 0 000-80zm0 64a24 24 0 110-48 24 24 0 010 48zM344 160a40 40 0 100 80 40 40 0 000-80zm0 64a24 24 0 110-48 24 24 0 010 48zM136 160a40 40 0 100 80 40 40 0 000-80zm0 64a24 24 0 110-48 24 24 0 010 48zM240 256a40 40 0 100 80 40 40 0 000-80zm0 64a24 24 0 110-48 24 24 0 010 48zM344 256a40 40 0 100 80 40 40 0 000-80zm0 64a24 24 0 110-48 24 24 0 010 48zM136 256a40 40 0 100 80 40 40 0 000-80zm0 64a24 24 0 110-48 24 24 0 010 48zM240 352a40 40 0 100 80 40 40 0 000-80zm0 64a24 24 0 110-48 24 24 0 010 48zM136 352a40 40 0 100 80 40 40 0 000-80zm0 64a24 24 0 110-48 24 24 0 010 48zM376 352h-64a8 8 0 00-8 8v80a8 8 0 008 8h64a8 8 0 008-8v-80a8 8 0 00-8-8zm-8 80h-48v-64h48v64z"/><rect width="16" height="16" x="320" y="96"/><rect width="16" height="16" x="352" y="96"/><polygon points="144 80 144 64 128 64 128 80 112 80 112 96 128 96 128 112 144 112 144 96 160 96 160 80"/><path d="M352 408h-8a8 8 0 000 16h8a8 8 0 000-16z"/></symbol><symbol id="icon-close" viewBox="0 0 311 311.077"><path d="M16.035 311.078c-4.097 0-8.195-1.558-11.308-4.695-6.25-6.25-6.25-16.383 0-22.633L283.789 4.687c6.25-6.25 16.383-6.25 22.633 0s6.25 16.383 0 22.637L27.363 306.383a16.045 16.045 0 01-11.328 4.695zm0 0"/><path d="M295.117 311.078a15.879 15.879 0 01-11.308-4.695L4.727 27.324c-6.25-6.254-6.25-16.386 0-22.636s16.382-6.25 22.636 0L306.422 283.75c6.25 6.25 6.25 16.383 0 22.633-3.137 3.117-7.23 4.695-11.305 4.695zm0 0"/></symbol><symbol id="icon-h1" viewBox="0 0 8.4 8.4"><g clip-path="url(#a)" transform="matrix(.35278 0 0 -.35278 0 8.4)"><path d="M6.2 9.1L6 6.2l3 .2 12 12.1-2.7 2.8zm-1.3-5a1 1 0 00-1 1.1l.3 4.4c0 .3.1.5.3.7l13.1 13a1 1 0 001.4 0l4.2-4a1 1 0 000-1.5L10 4.8a1 1 0 00-.7-.4L5 4.2"/><path d="M20.1 16.1c-.1 0-.2 0-.3.2L16 20v.7c.2.2.6.2.8 0l3.7-3.7a.5.5 0 00-.4-.9"/><path d="M5.6 8.2h-.5l-.1-3 2.9.1v.3c.2 1.5-.8 2.6-2.3 2.6"/><path d="M22.8 0H1a1 1 0 00-1 1v21.8c0 .6.4 1 1 1h10.8a1 1 0 000-2H2V2h19.8v9.8a1 1 0 102 0V1c0-.6-.4-1-1-1"/></g></symbol><symbol id="icon-h2" viewBox="0 0 7.9 8.1"><g clip-path="url(#a)" transform="matrix(.35278 0 0 -.35278 0 8.1)"><path d="M2 0H0c0 3.7 3.2 6.8 7.2 6.8v-2C4.3 4.8 2 2.6 2 0M22.4 0h-2c0 2.6-2.3 4.8-5.1 4.8v2c4 0 7.1-3 7.1-6.8M10.9 22c-1.4 0-2.8-.6-3.7-1.8A7.4 7.4 0 015.9 14c.8-4.4 2.8-7 5.3-7s4.5 2.6 5.4 7c.4 2.5 0 4.7-1.3 6.2-1 1.3-2.6 2-4 1.9h-.4M11.2 6c-3 0-5.4 3-6.3 7.9-.5 2.7 0 5.2 1.5 7 1.2 1.5 3 2.3 4.9 2.1h.2c1.7 0 3.4-.7 4.5-2.1 1.5-1.8 2-4.3 1.6-7-1-5-3.3-8-6.4-8"/><path d="M4.8 14.4h-.2c-.5-.1-.5-1.4-.1-2.7.3-1.3.8-2 1.1-2h.1c.3.2.5 1 .3 2.5-.3 1.2-.8 2.2-1.3 2.2M17.7 14.4c-.5 0-1-1-1.2-2.3-.2-1.3-.1-2.2.2-2.3h.1c.4 0 .8.6 1.2 1.9.4 1.3.3 2.6-.2 2.7h-.1M12.4 22.6h-1.2a15.3 15.3 0 01-2.2 0 3 3 0 01-2.2-1.3c-.4-.3-.6-.6-.7-1l-.1-.5-.3-1.3a9.7 9.7 0 01-.4-2.7h.1c.2 0 .5 0 .6 1v1.8c.6.4 1.5 1 2.5 1L10 19l1.2-.2 1.2.2c.4.3 1 .4 1.5.7 1 0 1.8-.7 2.3-1.1l.1-1.8c.1-1 .5-1 .6-1h.1c.1.3 0 1.5-.3 2.7l-.3 1.3-.1.5c-.1.4-.4.7-.8 1a3 3 0 01-2.1 1.3h-1"/><path d="M6.3 14.5V14c0-.3 0-.6.3-.8.2-.3.6-.4 1-.4h.7c.4 0 .8.2 1 .4.3.3.4.5.3.8v.3c-1 .3-2.2.4-3.3 0M7.6 12c-.7 0-1.3.3-1.8.7a2 2 0 00-.5 1.5v.8l.1.3.3.1c1.4.5 3 .5 4.6 0l.2-.1v-.3l.1-.4v-.4c0-.5-.1-1-.5-1.4-.4-.5-1-.8-1.7-.8zM12.8 14.5V14c0-.3 0-.6.3-.8.2-.3.6-.4 1-.4h.8c.4 0 .7.2 1 .4.2.3.3.5.3.8v.3c-1.1.3-2.3.3-3.4 0m1.3-2.5c-.7 0-1.3.3-1.7.7a2 2 0 00-.6 1.5v.8l.1.3.3.1c1.5.5 3 .5 4.6 0l.2-.1.1-.3V14c.1-.5 0-1-.5-1.4-.4-.5-1-.8-1.7-.8z"/><path d="M12.3 13.5h-2v1h2z"/></g></symbol><symbol id="icon-h3" viewBox="0 0 7 8.8"><g clip-path="url(#a)" transform="matrix(.35278 0 0 -.35278 961.1 406.1)"><path d="M2 0H0c0 3.7 3.2 6.8 7.2 6.8v-2C4.3 4.8 2 2.6 2 0M22.4 0h-2c0 2.6-2.3 4.8-5.1 4.8v2c4 0 7.1-3 7.1-6.8M10.9 22c-1.4 0-2.8-.6-3.7-1.8A7.4 7.4 0 015.9 14c.8-4.4 2.8-7 5.3-7s4.5 2.6 5.4 7c.4 2.5 0 4.7-1.3 6.2-1 1.3-2.6 2-4 1.9h-.4M11.2 6c-3 0-5.4 3-6.3 7.9-.5 2.7 0 5.2 1.5 7 1.2 1.5 3 2.3 4.9 2.1h.2c1.7 0 3.4-.7 4.5-2.1 1.5-1.8 2-4.3 1.6-7-1-5-3.3-8-6.4-8"/><path d="M4.8 14.4h-.2c-.5-.1-.5-1.4-.1-2.7.3-1.3.8-2 1.1-2h.1c.3.2.5 1 .3 2.5-.3 1.2-.8 2.2-1.3 2.2M17.7 14.4c-.5 0-1-1-1.2-2.3-.2-1.3-.1-2.2.2-2.3h.1c.4 0 .8.6 1.2 1.9.4 1.3.3 2.6-.2 2.7h-.1M12.4 22.6h-1.2a15.3 15.3 0 01-2.2 0 3 3 0 01-2.2-1.3c-.4-.3-.6-.6-.7-1l-.1-.5-.3-1.3a9.7 9.7 0 01-.4-2.7h.1c.2 0 .5 0 .6 1v1.8c.6.4 1.5 1 2.5 1L10 19l1.2-.2 1.2.2c.4.3 1 .4 1.5.7 1 0 1.8-.7 2.3-1.1l.1-1.8c.1-1 .5-1 .6-1h.1c.1.3 0 1.5-.3 2.7l-.3 1.3-.1.5c-.1.4-.4.7-.8 1a3 3 0 01-2.1 1.3h-1"/><path d="M6.3 14.5V14c0-.3 0-.6.3-.8.2-.3.6-.4 1-.4h.7c.4 0 .8.2 1 .4.3.3.4.5.3.8v.3c-1 .3-2.2.4-3.3 0M7.6 12c-.7 0-1.3.3-1.8.7a2 2 0 00-.5 1.5v.8l.1.3.3.1c1.4.5 3 .5 4.6 0l.2-.1v-.3l.1-.4v-.4c0-.5-.1-1-.5-1.4-.4-.5-1-.8-1.7-.8zM12.8 14.5V14c0-.3 0-.6.3-.8.2-.3.6-.4 1-.4h.8c.4 0 .7.2 1 .4.2.3.3.5.3.8v.3c-1.1.3-2.3.3-3.4 0m1.3-2.5c-.7 0-1.3.3-1.7.7a2 2 0 00-.6 1.5v.8l.1.3.3.1c1.5.5 3 .5 4.6 0l.2-.1.1-.3V14c.1-.5 0-1-.5-1.4-.4-.5-1-.8-1.7-.8z"/><path d="M12.3 13.5h-2v1h2z"/></g><g clip-path="url(#b)" transform="matrix(.35278 0 0 -.35278 0 8.8)"><path d="M13.7.5c-.3 0-.5.2-.5.5v5.2c0 .3.2.5.5.5H19a.5.5 0 100-1h-4.7V1c0-.3-.2-.5-.5-.5"/><path d="M5.7 2h7.6l4.6 4.6V18H5.7zm8-2h-9a1 1 0 00-1 1v17.9c0 .5.5 1 1 1H19c.6 0 1-.5 1-1V6.2a1 1 0 00-.3-.7L14.4.3a1 1 0 00-.7-.3"/><path d="M12.8 15H7.7a.5.5 0 100 1h5a.5.5 0 000-1M16.1 12.4H7.7a.5.5 0 100 1H16a.5.5 0 100-1M16.1 9.8H7.7a.5.5 0 100 1H16a.5.5 0 100-1M11.2 7.2H7.7a.5.5 0 100 1h3.5a.5.5 0 100-1"/><path d="M4.5 3.6H1a1 1 0 00-1 1v18.5c0 .6.4 1 1 1h14.4c.5 0 1-.4 1-1v-3.9a1 1 0 10-2 0v3H2V5.5h2.5a1 1 0 100-2"/><path d="M11.1 21H5.2a2 2 0 000 4h6a2 2 0 000-4"/></g></symbol><symbol id="icon-h4" viewBox="0 0 7.7 9.6"><g clip-path="url(#a)" transform="matrix(.35278 0 0 -.35278 176 -55.4)"><path d="M2 0H0c0 3.7 3.2 6.8 7.2 6.8v-2C4.3 4.8 2 2.6 2 0M22.4 0h-2c0 2.6-2.3 4.8-5.1 4.8v2c4 0 7.1-3 7.1-6.8M10.9 22c-1.4 0-2.8-.6-3.7-1.8A7.4 7.4 0 015.9 14c.8-4.4 2.8-7 5.3-7s4.5 2.6 5.4 7c.4 2.5 0 4.7-1.3 6.2-1 1.3-2.6 2-4 1.9h-.4M11.2 6c-3 0-5.4 3-6.3 7.9-.5 2.7 0 5.2 1.5 7 1.2 1.5 3 2.3 4.9 2.1h.2c1.7 0 3.4-.7 4.5-2.1 1.5-1.8 2-4.3 1.6-7-1-5-3.3-8-6.4-8"/><path d="M4.8 14.4h-.2c-.5-.1-.5-1.4-.1-2.7.3-1.3.8-2 1.1-2h.1c.3.2.5 1 .3 2.5-.3 1.2-.8 2.2-1.3 2.2M17.7 14.4c-.5 0-1-1-1.2-2.3-.2-1.3-.1-2.2.2-2.3h.1c.4 0 .8.6 1.2 1.9.4 1.3.3 2.6-.2 2.7h-.1M12.4 22.6h-1.2a15.3 15.3 0 01-2.2 0 3 3 0 01-2.2-1.3c-.4-.3-.6-.6-.7-1l-.1-.5-.3-1.3a9.7 9.7 0 01-.4-2.7h.1c.2 0 .5 0 .6 1v1.8c.6.4 1.5 1 2.5 1L10 19l1.2-.2 1.2.2c.4.3 1 .4 1.5.7 1 0 1.8-.7 2.3-1.1l.1-1.8c.1-1 .5-1 .6-1h.1c.1.3 0 1.5-.3 2.7l-.3 1.3-.1.5c-.1.4-.4.7-.8 1a3 3 0 01-2.1 1.3h-1"/><path d="M6.3 14.5V14c0-.3 0-.6.3-.8.2-.3.6-.4 1-.4h.7c.4 0 .8.2 1 .4.3.3.4.5.3.8v.3c-1 .3-2.2.4-3.3 0M7.6 12c-.7 0-1.3.3-1.8.7a2 2 0 00-.5 1.5v.8l.1.3.3.1c1.4.5 3 .5 4.6 0l.2-.1v-.3l.1-.4v-.4c0-.5-.1-1-.5-1.4-.4-.5-1-.8-1.7-.8zM12.8 14.5V14c0-.3 0-.6.3-.8.2-.3.6-.4 1-.4h.8c.4 0 .7.2 1 .4.2.3.3.5.3.8v.3c-1.1.3-2.3.3-3.4 0m1.3-2.5c-.7 0-1.3.3-1.7.7a2 2 0 00-.6 1.5v.8l.1.3.3.1c1.5.5 3 .5 4.6 0l.2-.1.1-.3V14c.1-.5 0-1-.5-1.4-.4-.5-1-.8-1.7-.8z"/><path d="M12.3 13.5h-2v1h2z"/></g><g clip-path="url(#b)" transform="matrix(.35278 0 0 -.35278 -785 -452.7)"><path d="M13.7.5c-.3 0-.5.2-.5.5v5.2c0 .3.2.5.5.5H19a.5.5 0 100-1h-4.7V1c0-.3-.2-.5-.5-.5"/><path d="M5.7 2h7.6l4.6 4.6V18H5.7zm8-2h-9a1 1 0 00-1 1v17.9c0 .5.5 1 1 1H19c.6 0 1-.5 1-1V6.2a1 1 0 00-.3-.7L14.4.3a1 1 0 00-.7-.3"/><path d="M12.8 15H7.7a.5.5 0 100 1h5a.5.5 0 000-1M16.1 12.4H7.7a.5.5 0 100 1H16a.5.5 0 100-1M16.1 9.8H7.7a.5.5 0 100 1H16a.5.5 0 100-1M11.2 7.2H7.7a.5.5 0 100 1h3.5a.5.5 0 100-1"/><path d="M4.5 3.6H1a1 1 0 00-1 1v18.5c0 .6.4 1 1 1h14.4c.5 0 1-.4 1-1v-3.9a1 1 0 10-2 0v3H2V5.5h2.5a1 1 0 100-2"/><path d="M11.1 21H5.2a2 2 0 000 4h6a2 2 0 000-4"/></g><g clip-path="url(#c)" transform="matrix(.35278 0 0 -.35278 0 9.6)"><path d="M10.1 19.2H5a.5.5 0 100 1H10a.5.5 0 000-1M13.5 16.6H5a.5.5 0 100 1h8.5a.5.5 0 100-1M13.5 14H5a.5.5 0 100 1h8.5a.5.5 0 100-1M8.5 11.3H5a.5.5 0 100 1h3.5a.5.5 0 100-1M5.9 25.1l-.2-.1.2-.1h6.9c0 .2-.1.2-.2.2zm6.7-2.2H6a2.1 2.1 0 000 4.2h6.7a2.1 2.1 0 000-4.2M15.7 11.4a5.2 5.2 0 110-10.4 5.2 5.2 0 010 10.4m0-11.4a6.2 6.2 0 100 12.4 6.2 6.2 0 000-12.4"/><path d="M10.5 2.9H1a1 1 0 00-1 1V25c0 .6.4 1 1 1h16.5c.6 0 1-.4 1-1V11.6h-2v12.5H2V5h8.5z"/><path d="M14.7 2.6a1 1 0 00-.8.3l-1.6 1.7A1 1 0 1013.7 6l1-.9 2.8 3.6c.4.4 1 .5 1.4.1.4-.3.5-1 .2-1.4L15.4 3a1 1 0 00-.7-.4"/></g></symbol><symbol id="icon-h5" viewBox="0 0 8.2 7.3"><g clip-path="url(#a)" transform="matrix(.35278 0 0 -.35278 0 7.3)"><path d="M7.8 18.7c-1.3 0-2.3-1.3-2.3-2.9 0-1.6 1-2.8 2.3-2.8 1.3 0 2.4 1.2 2.4 2.8 0 1.6-1.1 2.9-2.4 2.9m0-7.7c-2.4 0-4.3 2.1-4.3 4.8 0 2.7 2 4.9 4.3 4.9 2.4 0 4.4-2.2 4.4-4.9s-2-4.8-4.4-4.8M2.2 2h11l.2 3.2c0 .7-.5 1.7-1.3 2-2.8 1-6 1-8.7 0-.8-.3-1.4-1.3-1.4-2zm12-2h-13a1 1 0 00-1 1L0 5C0 6.8 1.1 8.6 2.7 9a15 15 0 0010 0 4.2 4.2 0 002.7-4l-.2-4c0-.6-.5-1-1-1"/><path d="M2.2 2h11l.2 3.2c0 .7-.5 1.7-1.3 2-2.8 1-6 1-8.7 0-.8-.3-1.4-1.3-1.4-2zm12-2h-13a1 1 0 00-1 1L0 5C0 6.8 1.1 8.6 2.7 9a15 15 0 0010 0 4.2 4.2 0 002.7-4l-.2-4c0-.6-.5-1-1-1M22 0h-5.2a1 1 0 100 2H21l.2 2.7c0 .5-.5 1.3-1 1.5a11 11 0 01-3.6.6 1 1 0 00-1 1c0 .6.5 1 1 1a13 13 0 004.2-.7 3.8 3.8 0 002.4-3.6L23 1c0-.5-.5-.9-1-.9M18 16c-.9 0-1.6-1-1.6-2 0-1.2.7-2 1.6-2 .9 0 1.6.8 1.6 2 0 1-.7 2-1.6 2m0-6c-2 0-3.6 1.7-3.6 4 0 2.1 1.6 4 3.6 4s3.6-1.9 3.6-4c0-2.3-1.6-4-3.6-4"/></g></symbol><symbol id="icon-h6" viewBox="0 0 8.9 8.4"><g clip-path="url(#a)" transform="matrix(.35278 0 0 -.35278 0 8.4)"><path d="M9.3 9L5 4.8C4.3 4 4.2 3 4.6 2.6l.6-.2c.5 0 1 .3 1.5.7l4.2 4.2zM5.2.4c-.8 0-1.5.3-2 .8-1.3 1.3-1 3.4.5 5L8.6 11c.4.4 1 .4 1.4 0l3-3a1 1 0 000-1.5L8.1 1.7a4.2 4.2 0 00-3-1.3M22.3 21l-1-1a.4.4 0 010-.6c.2-.3.4-.3.6 0l1 1zm-.7-3.8c-.6 0-1.2.3-1.7.7-1 1-1 2.5 0 3.5l1.7 1.6c.3.4 1 .4 1.4 0l2-2a1 1 0 000-1.4L23.3 18c-.4-.4-1-.7-1.7-.7"/><path d="M15.1 12.2a1 1 0 00-.7 1.7l5.5 5.5a1 1 0 001.4-1.5l-5.5-5.5a1 1 0 00-.7-.2"/><path d="M8 12.8c.2 0 .5-.1.7-.3l9.9-10c.7-.7 2-.7 2.6 0a1.8 1.8 0 010 2.7l-10 10a1 1 0 00-.2.9 4.5 4.5 0 01-4.3 5.7L8.4 20c.3-.2.4-.6.3-1L8 16.6a1 1 0 00-.7-.7L4.7 15a1 1 0 00-1 .2L2 17.1a4.6 4.6 0 015.7-4.3H8M20 0c-1.1 0-2 .4-2.8 1.1l-9.6 9.6a6.6 6.6 0 00-7.2 8.8c.1.3.4.6.7.6.4.1.7 0 1-.2l2.7-2.7 1.4.3.4 1.5-2.7 2.7a1 1 0 00.4 1.6 6.6 6.6 0 008.8-7.2l9.5-9.5a3.8 3.8 0 000-5.5A3.8 3.8 0 0020 0"/><path d="M19.8 4.9a.8.8 0 110-1.7.8.8 0 010 1.7"/></g></symbol><symbol id="icon-h7" viewBox="0 0 6.5 8.2"><g clip-path="url(#a)" transform="matrix(.35278 0 0 -.35278 0 8.2)"><path d="M2 12.6h6v6.3H2zm7-2H1a1 1 0 00-1 1v8.3c0 .6.4 1 1 1h8c.6 0 1-.4 1-1v-8.3c0-.6-.4-1-1-1"/><path d="M17.4 7.3H6.8a1 1 0 100 2h9L14.2 12a1 1 0 000 1l1.4 2.7H9a1 1 0 100 2h8.4a1 1 0 00.9-1.5l-2-3.7 2-3.7a1 1 0 00-.9-1.5M2.6 0a1 1 0 00-1 1v10.3a1 1 0 102 0V1c0-.6-.5-1-1-1M2.6 19.7a1 1 0 00-1 1v1.6a1 1 0 102 0v-1.6c0-.6-.5-1-1-1"/><path d="M6.8 7.3a1 1 0 00-1 1v3a1 1 0 102 0v-3c0-.5-.5-1-1-1"/></g></symbol><symbol id="icon-h8" viewBox="0 0 8.5 8"><g clip-path="url(#a)" transform="matrix(.35278 0 0 -.35278 0 8)"><path d="M23.6 18.7H4a.5.5 0 000 1h19.6a.5.5 0 000-1M2.4 15.5a.4.4 0 01-.4-.4V2.4c0-.2.2-.4.4-.4h19.4c.2 0 .4.2.4.4v12.7c0 .2-.2.4-.4.4zM21.8 0H2.4A2.4 2.4 0 000 2.4v12.7c0 1.3 1.1 2.4 2.4 2.4h19.4c1.3 0 2.4-1 2.4-2.4V2.4c0-1.3-1-2.4-2.4-2.4"/><path d="M23.2 13.8a1 1 0 00-1 1v5.5c0 .2-.2.4-.4.4H2.4a.4.4 0 01-.4-.4v-5.5a1 1 0 10-2 0v5.5c0 1.3 1.1 2.4 2.4 2.4h19.4c1.3 0 2.4-1 2.4-2.4v-5.5c0-.6-.4-1-1-1M22.9 5.3h-5c-1.3 0-2.4 1.1-2.4 2.4v2.1c0 1.3 1.1 2.4 2.4 2.4h5a1 1 0 100-2h-5a.4.4 0 01-.4-.4v-2c0-.3.2-.5.4-.5h5a1 1 0 100-2"/></g></symbol><symbol id="icon-logo" viewBox="0 0 131.91 48.08"><g clip-path="url(#a)" transform="matrix(1.33333 0 0 -1.33333 0 48.08)"><path d="M10.76 31.69s-1.5-.09-2.09 0c-.58.08-3.16.5-5.5-.67C.84 29.85-.08 27.2.01 25.27c.08-1.92 1.25-4.58 4.25-5.17 3-.58 4.33 1 5 1.59a4.97 4.97 0 011.08 1.58l-1 .58S6.84 20.2 4.5 22.1c-2.34 1.92-1.17 5.92-.25 6.84.91.91 3.25 1.75 4.16 1.08.92-.67 1-2.58 1-2.58l1.34.08zM96.3 12.05s-1.5-.08-2.08 0c-.58.08-3.16.5-5.5-.67-2.33-1.16-3.25-3.83-3.16-5.75.08-1.91 1.25-4.58 4.25-5.16 3-.59 4.33 1 5 1.58a4.97 4.97 0 011.08 1.58l-1 .59s-2.5-3.67-4.83-1.75c-2.34 1.91-1.17 5.91-.25 6.83.91.92 3.25 1.75 4.16 1.08.92-.66 1-2.58 1-2.58l1.34.08zM12.26 28.77l2.08 3.06h8.75l1.08-3.64-1.8-.44s-.03 1.74-.87 2.26c-.83.51-1.5 0-1.5 0l-1.2-6.23s-.34-1.16-.06-1.81c.29-.66 1.47-.85 1.47-.85l-.03-1.34h-7.1v1.31s2.32-.22 2.79 2c.47 2.22 1.4 7.1 1.4 7.1s-1.34.37-2.06-.53c-.72-.91-1.47-1.97-1.47-1.97zM31.06 27.56a1.79 1.79 0 00-1.5-.68h-1.13l.6 2.68s1.36.39 2.06-.2c.6-.52.22-1.52-.03-1.8m3.16 2.96c-.76 1.3-2.44 1.3-2.44 1.3H25.2V30.7s.44.11.9-.42c.48-.53.1-1.47.1-1.56 0-.1-.93-3.69-1.3-5.6-.38-1.9-2.1-2-2.1-2v-1.34h5.68v1.5s-.4-.12-.68 0c-.28.13-.5.28-.47 1.1.03.8.69 2.53.69 2.53s3.5-.26 5.15 1c1.66 1.24 1.57 3.7 1.04 4.61M42.34 22.5c-1.04-1-1.75-1.03-2.5-1.03-.97 0-1.6.7-1.83 1.52-.38 1.42-.36 6.01 2.67 7.15.53.2 2 .3 2.73-.64.75-.96.7-5.28-1.07-7m3.56 7.75c-1.22 1.69-3.6 2.34-5.78 1.58a9.03 9.03 0 01-2.57-1.49A6.78 6.78 0 0135 25.05a6.3 6.3 0 01.78-3.4 3.83 3.83 0 012.6-1.76 9.64 9.64 0 013.64.26c1.23.32 2.4 1.38 3.23 2.41a9.18 9.18 0 011.57 3.69c.09.74.3 2.31-.9 4M44.95 2.79c-1.03-1-1.75-1.03-2.5-1.03-.96 0-1.6.7-1.82 1.52-.38 1.41-.36 6 2.66 7.15.54.2 2 .3 2.74-.65.74-.95.7-5.27-1.08-7m3.57 7.76c-1.22 1.69-3.6 2.34-5.78 1.58a9.03 9.03 0 01-2.57-1.5 6.78 6.78 0 01-2.56-5.28 6.3 6.3 0 01.78-3.4A3.83 3.83 0 0141 .18a9.64 9.64 0 013.63.26c1.24.32 2.4 1.38 3.24 2.41a9.18 9.18 0 011.56 3.69c.1.74.32 2.31-.9 4M48.88 31.83h5.63v-.56s-1.55-.54-1.92-1.5c-.38-.96-.9-4.46-.9-4.46l4.82 3.26s.62.58.79 1.2c.16.63-.93 1.39-.93 1.39l-.03.67h5.79v-.8s-1.63-.26-1.96-1c-.33-.76-1.58-6.84-1.58-6.84s-.34-1.46-.09-1.71 1.25-.2 1.25-.2l-.04-1.47h-5.79l.04 1.17s1.34.04 1.84 1.04 1.29 4.67 1.29 4.67l-5.46-3.88s-.58-.41-.42-.87c.17-.46 1.17-.63 1.17-.63l-.04-1.5h-5.46v1.25s1.37-.04 1.83 1.54c.46 1.59 1.5 7 1.5 7s.13.85-.42 1.17c-.33.19-.91.13-.91.13zM53.6 36.04c.66 0 1.24-.14 1.16-1.04-.04-.44-.67-.85-.67-.85s1.27-.17 2.31-.17 2.1.3 2.1.3-.56.45-.43 1.03c.12.59.7.75 1.33.75.63 0 1.15-.41 1.15-1.14s-.56-1.96-4.5-1.88c-.88.02-3.48.1-3.84 1.42-.35 1.31.72 1.58 1.38 1.58M75.03 30.69s.9.06 1.03-.22c.25-.6-.22-2.56-.78-5.06-.57-2.5-.82-3.75-1.2-3.91a6.49 6.49 0 00-1.37-.22v-1.47h10.63l1 3.88-.94.53s-.53-1.35-1.19-1.94c-.47-.42-.68-.72-1.28-.78-.6-.06-3.62.1-3.62.1l.65 3.65H80l-.2-1.57 1.16-.02.91 4.8h-.94s-.15-.52-.4-.96c-.25-.44-.29-.6-.75-.63-.47-.03-1.44.1-1.44.1l.81 3.22s3 .4 3.9-.38c.91-.78.95-1.37.95-1.37h.96l-.68 3.39h-9.25zM74.53 11.13s.9.07 1.03-.22c.25-.59-.22-2.56-.78-5.06-.57-2.5-.82-3.75-1.2-3.9a6.49 6.49 0 00-1.37-.22V.26h10.63l1 3.87-.94.54s-.53-1.35-1.19-1.94c-.47-.43-.68-.72-1.28-.78-.6-.07-3.62.09-3.62.09l.65 3.66h2.04l-.2-1.58 1.16-.02.91 4.82h-.94s-.15-.54-.4-.97c-.25-.44-.29-.6-.75-.63-.47-.03-1.44.1-1.44.1l.81 3.21s3 .41 3.9-.37c.91-.78.95-1.38.95-1.38h.96l-.68 3.4h-9.25z"/><path d="M61.58 28.77l2.08 3.06h8.75l1.08-3.64-1.8-.44s-.03 1.74-.86 2.26c-.84.51-1.5 0-1.5 0l-1.2-6.23s-.35-1.16-.07-1.81c.29-.66 1.47-.85 1.47-.85l-.03-1.34h-7.1v1.31s2.32-.22 2.79 2c.47 2.22 1.4 7.1 1.4 7.1s-1.34.37-2.06-.53c-.72-.91-1.47-1.97-1.47-1.97zM84.96 19.81l5.6-.03v1.66s-.96-.1-1.17.03c-.17.12-.27.31-.11.97l.68 2.78s1.53.37 2.03-.5l1.47-2.56s.57-.82-.3-.82h-1.23l.03-1.56 5.57.03v1.6s-.7-.16-1.2.25c-.5.4-2.65 4.5-2.65 4.5s-.15.4-.03.72c.13.3 1.42 1.5 2.07 2.18.65.68 1.3 1.17 2.27 1.2.97.03.94 0 .94 0v1.57h-4.97l-.03-.99s.75-.15.35-.56c-.41-.4-2.57-2.65-2.97-2.94-.4-.28-.85-.34-.94-.03-.1.32.4 1.69.55 2.4.14.7.57 1.07.82 1.07s.6.03.6.03v1.02H86.9v-1.45s.97-.07 1.1-.32c.12-.25.08-.93-.07-1.68l-1.19-6.2s-.21-.71-.8-.71h-.98zM61.58 9.23l2.08 3.06h8.75l1.08-3.64-1.8-.44s-.03 1.75-.86 2.26c-.84.51-1.5 0-1.5 0l-1.2-6.23s-.35-1.15-.07-1.8c.29-.67 1.47-.85 1.47-.85L69.5.24h-7.1v1.32s2.32-.22 2.79 2c.47 2.21 1.4 7.09 1.4 7.09s-1.34.37-2.06-.53-1.47-1.97-1.47-1.97zM13.24 9.23l2.08 3.06h8.75l1.08-3.64-1.8-.44s-.03 1.75-.86 2.26c-.84.51-1.5 0-1.5 0l-1.2-6.23s-.35-1.15-.06-1.8c.28-.67 1.46-.85 1.46-.85L21.16.24h-7.1v1.32s2.32-.22 2.79 2c.47 2.21 1.4 7.09 1.4 7.09s-1.34.37-2.06-.53c-.71-.9-1.46-1.97-1.46-1.97zM32.8 8.44A1.49 1.49 0 0031.5 7.2a50.5 50.5 0 00-1.64-.12s.64 2.8.73 2.94c.1.14.75.43 1.41.15.66-.28.9-1.04.78-1.73m1.55-5.31c-.28.56-.96 1.75-1.05 1.92-.1.17.05.64.05.64s.4.1 1.67.98c1.28.88 1.64 2.64.89 4.14-.75 1.5-2.81 1.47-2.81 1.47h-6.97v-1.4s.97.07 1.2-.25c.36-.5-.28-2.88-.51-4.04-.24-1.15-.52-2.56-.99-3.92-.47-1.36-2.12-1.12-2.12-1.12V0h6.26v1.66s-.62-.05-.98.01c-.36.07-.22 1.15-.1 1.64.1.48.35 1.86.88 1.86s1.12-.39 1.44-1.28c.2-.57.51-2.3.8-2.95.27-.66.92-.94.92-.94h3.35v1.31s-.75.03-1.06.19c-.31.16-.6 1.06-.87 1.63M11.62 7.84v4.2h-1.28v-.98s-.5-.18-.88.22c-.37.4-1.3.93-2.72 1-1.4.06-4.71-1.06-4.75-3.81-.03-2.75 2.29-3.25 3.13-3.4.84-.16 3.12-.3 3.22-1.46.08-1.04-.28-1.77-1.88-1.83a3.63 3.63 0 00-3.28 1.56c-.62.91-.87 1.47-.87 1.47l-1.13.03L.62.24h1.87l.13 1.23S3.96 0 7.46 0s3.68 3.53 3.66 4c-.03.72-.1 1.86-2.64 2.77-2.53.9-3.44 1.07-3.61 1.92-.1.53.3 1.86 2.21 1.79A3.47 3.47 0 009.5 9.44c.6-.6.88-1.6.88-1.6zM49.76 12.2h5.5v-.93s-1.25-.46-1.38-1c-.13-.54 1.17-3 1.17-3l1.83 2.04s.88.8.8 1.21c-.1.42-1 .7-1 .7v.97h4.9v-1.13s-1.28-.2-1.95-1c-.67-.79-4.38-6.12-4.38-6.12s-.12-1.75.05-1.96c.16-.2 1.37-.25 1.37-.25V.26h-6.16v1.01s1.91.5 2.08 2.27c.16 1.77-.42 3.81-.75 4.52-.34.71-.59 2-1.04 2.38-.46.37-1.04.46-1.04.46zM11.09 17.77l-4.97-1.92 4.97-1.66zM86.98 17.77l4.97-1.92-4.97-1.66z"/><path fill="none" stroke-miterlimit="10" stroke-width=".75" d="M11.09 15.98h76.25"/></g></symbol><symbol id="icon-mail" viewBox="0 0 479 479"><path d="M434 60H45C20 60 0 80 0 105v269c0 25 20 45 45 45h389c25 0 45-20 45-45V105c0-25-20-45-45-45zm0 30l6 1-200 174L39 91l6-1zm0 299H45c-8 0-15-6-15-15V123l200 173a15 15 0 0019 0l200-173v251c0 9-7 15-15 15z"/></symbol><symbol id="icon-map" viewBox="0 0 512 512"><path d="M344 152a88 88 0 10-176 0 88 88 0 00176 0zm-144 0a56 56 0 11112 0 56 56 0 01-112 0z"/><path d="M511 491l-64-200c-1-5-6-9-11-11l-65-16c21-35 37-74 37-112a152 152 0 00-304 0c0 38 16 77 37 112l-65 16c-5 2-10 6-11 11L1 491a16 16 0 0019 21l124-31 108 30h8l108-30 124 31a16 16 0 0019-21zM240 383v92l-78-22 22-130c23 29 46 51 56 60zm32 0c10-9 33-31 56-60l22 130-78 22zM256 32c66 0 120 54 120 120 0 79-89 172-120 202-31-30-120-123-120-202 0-66 54-120 120-120zM93 309l63-16-26 158-90 23zm289 142l-26-158 63 16 53 165z"/></symbol><symbol id="icon-menu" viewBox="0 -53 384 384"><path d="m368 154.667969h-352c-8.832031 0-16-7.167969-16-16s7.167969-16 16-16h352c8.832031 0 16 7.167969 16 16s-7.167969 16-16 16zm0 0"/><path d="m368 32h-352c-8.832031 0-16-7.167969-16-16s7.167969-16 16-16h352c8.832031 0 16 7.167969 16 16s-7.167969 16-16 16zm0 0"/><path d="m368 277.332031h-352c-8.832031 0-16-7.167969-16-16s7.167969-16 16-16h352c8.832031 0 16 7.167969 16 16s-7.167969 16-16 16zm0 0"/></symbol><symbol id="icon-phone" viewBox="0 0 474 474"><path d="M374 294a47 47 0 00-33-16c-13 0-24 5-35 15l-31 32-8-4-10-5a343 343 0 01-109-118l23-23 9-8c21-21 21-48 0-69l-28-28-9-9-19-19c-10-9-21-15-33-15s-24 6-34 15h-1L22 77a73 73 0 00-21 46c-3 29 6 57 13 74a471 471 0 00233 250 244 244 0 0094 27c23 0 43-8 58-25 5-7 11-12 18-19l13-12c10-11 15-23 15-35s-6-24-16-34l-55-55zm36 105l-12 12-19 20a48 48 0 01-38 16h-4c-30-2-58-14-78-24A444 444 0 0139 188c-9-25-13-44-11-63 1-11 5-21 14-29l34-34c5-5 10-8 15-8 6 0 11 4 14 7l1 1 18 18 9 9 28 28c10 10 10 20 0 31l-9 8-25 25h-1c-8 9-7 17-5 23v1c8 17 18 33 33 52v1a367 367 0 00111 92l1 1c3 2 7 3 10 3 8 0 13-6 15-7l34-35c4-3 9-7 15-7 7 0 12 4 15 7l55 56c10 10 10 20 0 31zM256 113c26 4 50 17 69 36s31 42 36 69c1 6 7 11 13 11h2c8-2 13-9 12-16A154 154 0 00261 86c-8-1-15 4-16 11s4 15 11 16z"/><path d="M473 209A254 254 0 00264 0a13 13 0 10-4 27 227 227 0 01187 186c1 7 6 12 13 12l2-1c8-1 13-8 11-15z"/></symbol><symbol id="icon-world" viewBox="0 0 512 512"><path d="M512 120a104 104 0 00-183-67 232 232 0 10133 178c24-31 50-72 50-111zM328 248c-1-22-3-44-6-65 14 25 32 48 48 65zm-54 163c-12 33-28 53-42 53s-29-20-41-53l-10-31c33-5 69-5 102 0l-9 31zM33 280h103c1 26 3 51 7 74-27 7-51 16-72 28-22-29-35-64-38-102zm37-134c22 12 46 21 73 28-4 23-6 48-7 74H33c3-37 16-72 37-102zm79 240c6 23 15 49 27 70-32-9-61-27-84-49 17-9 36-16 57-21zm26-38c-4-21-6-44-7-68h128c-1 24-3 47-6 68-38-5-78-5-115 0zm-7-100c1-24 3-47 7-68 38 5 78 5 115 0 3 21 5 44 6 68zm23-131c12-33 28-53 41-53s30 20 42 53l9 31c-33 5-68 5-102 0l10-31zm217-69c40 0 72 32 72 72 0 42-45 96-72 122-27-26-72-80-72-122 0-40 32-72 72-72zm-103 61c-5-13-10-26-17-37l24 9c-4 8-6 18-7 28zM176 72c-12 21-21 47-27 71-21-6-40-13-57-22 24-23 53-40 84-49zm112 384c12-21 21-47 27-70 21 5 40 12 57 21-23 23-52 40-84 49zm106-74c-21-12-46-21-73-28 4-23 6-48 7-74h103c-3 37-16 72-37 102z"/><circle cx="408.1" cy="120" r="32"/></symbol></svg>